<?xml version="1.0" encoding="UTF-8"?>
<svg id="Vrstva_1" data-name="Vrstva 1" xmlns="http://www.w3.org/2000/svg" xmlns:xlink="http://www.w3.org/1999/xlink" viewBox="0 0 989 215">
  <defs>
    <style>
      .cls-1 {
        clip-path: url(#clippath-1);
      }

      .cls-2, .cls-3 {
        fill: #fff;
      }

      .cls-4 {
        clip-path: url(#clippath);
      }

      .cls-3 {
        stroke-width: 0px;
      }
    </style>
    <clipPath id="clippath">
      <polygon class="cls-3" points="394.84 115.7 394.84 137.16 451.03 137.16 451.03 161.97 477.45 161.97 477.45 115.7 394.84 115.7"/>
    </clipPath>
    <clipPath id="clippath-1">
      <path class="cls-3" d="M394.84,183.56c0,7.91,6.84,13.68,14.75,17.97l26.29,13.28.27-.13.27.13,26.29-13.28c7.91-4.29,14.75-10.06,14.75-17.97v-16.63l-41.17,21.46h-.27l-9.52-4.83c-2.82-1.48-5.36-3.62-5.36-6.44v-21.19l-26.29-13.81v41.44Z"/>
    </clipPath>
  </defs>
  <g>
    <path class="cls-3" d="M85.84,43.35l10.68-29.55h3.96l11.38,29.55h-4.19l-3.24-8.95h-11.62l-3.05,8.95h-3.91ZM93.87,31.21h9.42l-2.9-8.18c-.88-2.49-1.54-4.53-1.97-6.13-.35,1.9-.85,3.78-1.5,5.64l-3.05,8.67Z"/>
    <path class="cls-3" d="M115.5,43.35V13.79h3.77l14.6,23.2V13.79h3.53v29.55h-3.77l-14.6-23.22v23.22h-3.53Z"/>
    <path class="cls-3" d="M151.39,43.35v-26.07h-9.16v-3.49h22.03v3.49h-9.2v26.07h-3.68Z"/>
    <path class="cls-3" d="M169.4,43.35V13.79h3.68v29.55h-3.68Z"/>
    <path class="cls-3" d="M188.25,43.35l-10.77-29.55h3.98l7.22,21.47c.58,1.72,1.07,3.33,1.46,4.84.43-1.61.93-3.23,1.5-4.84l7.51-21.47h3.75l-10.88,29.55h-3.77Z"/>
    <path class="cls-3" d="M207.57,43.35V13.79h3.68v29.55h-3.68Z"/>
    <path class="cls-3" d="M218.52,43.35V13.79h12.32c2.48,0,4.36.27,5.65.8s2.32,1.47,3.09,2.81,1.16,2.83,1.16,4.46c0,2.1-.64,3.86-1.92,5.3-1.28,1.44-3.25,2.35-5.92,2.74.97.5,1.71.99,2.22,1.47,1.07,1.05,2.09,2.36,3.05,3.93l4.83,8.04h-4.63l-3.68-6.15c-1.07-1.77-1.96-3.13-2.65-4.07-.7-.94-1.32-1.6-1.87-1.98-.55-.38-1.11-.64-1.68-.79-.42-.09-1.1-.14-2.05-.14h-4.27v13.12h-3.68ZM222.2,26.84h7.91c1.68,0,3-.18,3.94-.55.95-.37,1.67-.96,2.16-1.77s.74-1.7.74-2.65c0-1.4-.48-2.55-1.43-3.45-.95-.9-2.46-1.35-4.52-1.35h-8.8v9.78Z"/>
  </g>
  <g>
    <path class="cls-3" d="M202.57,190.52l2.89-.48c.16,1.22.61,2.15,1.35,2.8.74.65,1.78.97,3.11.97s2.34-.29,2.98-.86c.65-.57.97-1.25.97-2.02,0-.69-.29-1.24-.86-1.64-.4-.27-1.4-.62-2.98-1.04-2.14-.57-3.63-1.06-4.45-1.47-.83-.41-1.45-.99-1.88-1.72-.43-.73-.64-1.54-.64-2.43,0-.81.18-1.55.53-2.24s.83-1.26,1.44-1.71c.45-.35,1.07-.65,1.86-.89s1.62-.37,2.52-.37c1.35,0,2.54.2,3.56.61,1.02.41,1.78.96,2.26,1.66.49.7.82,1.63,1.01,2.8l-2.85.41c-.13-.93-.51-1.66-1.13-2.18-.62-.52-1.5-.78-2.64-.78-1.34,0-2.3.23-2.87.7-.57.47-.86,1.01-.86,1.64,0,.4.12.76.36,1.07.24.33.61.6,1.12.82.29.11,1.15.37,2.58.78,2.07.58,3.51,1.05,4.32,1.42.82.37,1.46.91,1.92,1.61s.7,1.58.7,2.62-.28,1.99-.85,2.89c-.57.9-1.39,1.6-2.46,2.1-1.07.49-2.28.74-3.63.74-2.24,0-3.94-.49-5.12-1.47s-1.92-2.43-2.25-4.35Z"/>
    <path class="cls-3" d="M232.77,190.09l3.02.39c-.48,1.85-1.36,3.29-2.64,4.31-1.29,1.02-2.93,1.53-4.93,1.53-2.52,0-4.52-.81-5.99-2.45-1.48-1.63-2.21-3.92-2.21-6.86s.75-5.41,2.24-7.09c1.49-1.68,3.43-2.52,5.81-2.52s4.18.82,5.64,2.47,2.19,3.96,2.19,6.95c0,.18,0,.45-.02.82h-12.85c.11,1.99.64,3.51,1.61,4.57.96,1.06,2.16,1.58,3.6,1.58,1.07,0,1.98-.3,2.74-.89.76-.59,1.36-1.53,1.8-2.83ZM223.18,185.13h9.62c-.13-1.52-.5-2.66-1.1-3.43-.93-1.18-2.14-1.77-3.62-1.77-1.34,0-2.47.47-3.38,1.41-.91.94-1.42,2.2-1.52,3.78Z"/>
    <path class="cls-3" d="M251.32,189.29l2.87.39c-.31,2.08-1.12,3.71-2.41,4.88-1.29,1.18-2.88,1.76-4.76,1.76-2.36,0-4.25-.81-5.69-2.43-1.43-1.62-2.15-3.94-2.15-6.96,0-1.95.31-3.66.92-5.13s1.55-2.56,2.81-3.3,2.63-1.1,4.11-1.1c1.87,0,3.4.5,4.59,1.49,1.19.99,1.95,2.41,2.29,4.24l-2.84.46c-.27-1.22-.75-2.13-1.44-2.74-.69-.61-1.52-.92-2.49-.92-1.47,0-2.67.55-3.58,1.66-.92,1.11-1.38,2.86-1.38,5.26s.44,4.2,1.33,5.3c.89,1.1,2.04,1.65,3.47,1.65,1.15,0,2.1-.37,2.87-1.11.77-.74,1.25-1.87,1.46-3.41Z"/>
    <path class="cls-3" d="M268.61,195.92v-2.66c-1.34,2.04-3.16,3.07-5.47,3.07-1.02,0-1.97-.2-2.85-.61-.88-.41-1.54-.92-1.96-1.54-.43-.62-.73-1.38-.9-2.28-.12-.6-.18-1.56-.18-2.86v-11.21h2.92v10.04c0,1.6.06,2.68.18,3.24.18.81.57,1.44,1.17,1.9.59.46,1.33.69,2.21.69s1.7-.24,2.47-.71c.77-.47,1.31-1.11,1.63-1.93.32-.81.48-1.99.48-3.54v-9.7h2.92v18.1h-2.61Z"/>
    <path class="cls-3" d="M276.4,195.92v-18.1h2.63v2.74c.67-1.28,1.29-2.13,1.86-2.54.57-.41,1.19-.61,1.87-.61.98,0,1.98.33,3,.99l-1.01,2.85c-.71-.44-1.43-.66-2.14-.66-.64,0-1.21.2-1.72.61-.51.4-.87.96-1.09,1.68-.32,1.09-.49,2.28-.49,3.58v9.47h-2.92Z"/>
    <path class="cls-3" d="M299.92,190.09l3.02.39c-.48,1.85-1.36,3.29-2.64,4.31-1.29,1.02-2.93,1.53-4.93,1.53-2.52,0-4.52-.81-5.99-2.45-1.48-1.63-2.21-3.92-2.21-6.86s.75-5.41,2.24-7.09c1.49-1.68,3.43-2.52,5.81-2.52s4.18.82,5.64,2.47,2.19,3.96,2.19,6.95c0,.18,0,.45-.02.82h-12.85c.11,1.99.64,3.51,1.61,4.57.96,1.06,2.16,1.58,3.6,1.58,1.07,0,1.98-.3,2.74-.89.76-.59,1.36-1.53,1.8-2.83ZM290.33,185.13h9.62c-.13-1.52-.5-2.66-1.1-3.43-.93-1.18-2.14-1.77-3.62-1.77-1.34,0-2.47.47-3.38,1.41-.91.94-1.42,2.2-1.52,3.78Z"/>
    <path class="cls-3" d="M318.41,195.92v-2.28c-1.09,1.8-2.7,2.69-4.82,2.69-1.37,0-2.64-.4-3.79-1.19-1.15-.8-2.04-1.91-2.68-3.33-.63-1.43-.95-3.06-.95-4.92s.29-3.44.86-4.92c.57-1.47,1.43-2.6,2.58-3.38,1.15-.78,2.43-1.18,3.84-1.18,1.04,0,1.96.23,2.77.69s1.47,1.06,1.98,1.8v-8.96h2.9v24.98h-2.71ZM309.18,186.89c0,2.32.46,4.05,1.4,5.2.93,1.15,2.03,1.72,3.29,1.72s2.36-.55,3.25-1.64,1.34-2.77,1.34-5.02c0-2.48-.45-4.29-1.36-5.45-.91-1.16-2.03-1.74-3.36-1.74s-2.38.56-3.25,1.67-1.31,2.87-1.31,5.27Z"/>
    <path class="cls-3" d="M338.89,195.92h-2.71v-24.98h2.92v8.91c1.23-1.62,2.81-2.44,4.72-2.44,1.06,0,2.06.22,3.01.67.95.45,1.72,1.08,2.34,1.89s1.09,1.79,1.44,2.94c.35,1.15.52,2.37.52,3.68,0,3.1-.73,5.5-2.19,7.19-1.46,1.69-3.21,2.54-5.26,2.54s-3.63-.89-4.79-2.68v2.27ZM338.86,186.74c0,2.17.28,3.74.84,4.7.92,1.58,2.16,2.37,3.73,2.37,1.28,0,2.38-.58,3.31-1.75.93-1.16,1.39-2.9,1.39-5.21s-.45-4.11-1.34-5.23c-.89-1.12-1.97-1.69-3.24-1.69s-2.38.58-3.31,1.75c-.93,1.16-1.4,2.85-1.4,5.05Z"/>
    <path class="cls-3" d="M355.18,202.89l-.32-2.88c.64.18,1.2.27,1.67.27.65,0,1.17-.11,1.56-.34.39-.23.71-.55.96-.95.18-.31.48-1.07.89-2.28.05-.17.14-.42.26-.75l-6.54-18.13h3.15l3.58,10.48c.46,1.33.88,2.73,1.25,4.19.33-1.41.74-2.78,1.2-4.12l3.68-10.55h2.92l-6.55,18.4c-.7,1.99-1.25,3.36-1.64,4.11-.52,1.01-1.11,1.75-1.78,2.22-.67.47-1.47.71-2.4.71-.56,0-1.19-.12-1.88-.37Z"/>
  </g>
  <g>
    <path class="cls-3" d="M376.95,43.35l10.68-29.55h3.96l11.38,29.55h-4.19l-3.24-8.95h-11.62l-3.05,8.95h-3.91ZM384.97,31.21h9.42l-2.9-8.18c-.88-2.49-1.54-4.53-1.97-6.13-.35,1.9-.85,3.78-1.5,5.64l-3.05,8.67Z"/>
    <path class="cls-3" d="M406.26,43.35V13.79h3.77l14.6,23.2V13.79h3.53v29.55h-3.77l-14.6-23.22v23.22h-3.53Z"/>
    <path class="cls-3" d="M441.8,43.35v-26.07h-9.16v-3.49h22.03v3.49h-9.2v26.07h-3.68Z"/>
    <path class="cls-3" d="M459.46,43.35V13.79h3.68v29.55h-3.68Z"/>
    <path class="cls-3" d="M468.76,33.85l3.47-.32c.16,1.48.55,2.69,1.15,3.64s1.53,1.71,2.8,2.3c1.26.58,2.69.88,4.27.88,1.4,0,2.64-.22,3.72-.66s1.87-1.05,2.4-1.82c.52-.77.79-1.62.79-2.53s-.25-1.74-.76-2.43c-.51-.69-1.34-1.27-2.5-1.74-.75-.31-2.4-.79-4.95-1.44-2.55-.65-4.34-1.27-5.37-1.84-1.33-.74-2.32-1.66-2.97-2.75-.65-1.1-.98-2.32-.98-3.68,0-1.49.4-2.89,1.19-4.18.8-1.3,1.96-2.28,3.49-2.95,1.53-.67,3.23-1.01,5.1-1.01,2.06,0,3.88.35,5.45,1.06,1.57.71,2.78,1.74,3.63,3.11.85,1.37,1.3,2.92,1.36,4.66l-3.53.28c-.19-1.87-.83-3.28-1.92-4.23-1.09-.95-2.71-1.43-4.84-1.43s-3.85.43-4.86,1.3-1.53,1.91-1.53,3.13c0,1.06.36,1.94,1.08,2.62.71.69,2.56,1.39,5.55,2.11,2.99.72,5.04,1.35,6.15,1.88,1.62.79,2.81,1.8,3.58,3.01.77,1.22,1.16,2.62,1.16,4.2s-.42,3.05-1.27,4.45c-.85,1.39-2.06,2.47-3.65,3.25s-3.37,1.16-5.36,1.16c-2.52,0-4.62-.39-6.32-1.17-1.7-.78-3.03-1.95-4-3.52-.97-1.57-1.48-3.34-1.53-5.31Z"/>
    <path class="cls-3" d="M496.3,43.35V13.79h10.49c1.85,0,3.26.09,4.23.28,1.36.24,2.51.7,3.43,1.38.92.68,1.67,1.63,2.23,2.85.56,1.22.84,2.57.84,4.03,0,2.51-.75,4.64-2.26,6.38-1.5,1.74-4.22,2.61-8.15,2.61h-7.13v12.01h-3.68ZM499.98,27.84h7.19c2.38,0,4.06-.47,5.06-1.41,1-.94,1.5-2.26,1.5-3.97,0-1.24-.29-2.29-.88-3.17-.59-.88-1.36-1.46-2.32-1.74-.62-.17-1.76-.26-3.43-.26h-7.11v10.56Z"/>
    <path class="cls-3" d="M516.65,43.35l10.68-29.55h3.96l11.38,29.55h-4.19l-3.24-8.95h-11.62l-3.05,8.95h-3.91ZM524.68,31.21h9.42l-2.9-8.18c-.88-2.49-1.54-4.53-1.97-6.13-.35,1.9-.85,3.78-1.5,5.64l-3.05,8.67Z"/>
    <path class="cls-3" d="M545.88,43.35V13.79h5.54l6.58,20.93c.61,1.95,1.05,3.41,1.33,4.37.32-1.08.81-2.65,1.48-4.74l6.66-20.56h4.95v29.55h-3.55v-24.74l-8.08,24.74h-3.32l-8.04-25.16v25.16h-3.55Z"/>
  </g>
  <g>
    <path class="cls-3" d="M705.94,43.35l10.68-29.55h3.96l11.38,29.55h-4.19l-3.24-8.95h-11.62l-3.05,8.95h-3.91ZM713.96,31.21h9.42l-2.9-8.18c-.88-2.49-1.54-4.53-1.97-6.13-.35,1.9-.85,3.78-1.5,5.64l-3.05,8.67Z"/>
    <path class="cls-3" d="M735.52,43.35V13.79h3.77l14.6,23.2V13.79h3.53v29.55h-3.77l-14.6-23.22v23.22h-3.53Z"/>
    <path class="cls-3" d="M771.33,43.35v-26.07h-9.16v-3.49h22.03v3.49h-9.2v26.07h-3.68Z"/>
    <path class="cls-3" d="M789.26,43.35V13.79h3.68v29.55h-3.68Z"/>
    <path class="cls-3" d="M800.09,43.35V13.79h10.49c1.85,0,3.26.09,4.23.28,1.36.24,2.51.7,3.43,1.38.92.68,1.67,1.63,2.23,2.85.56,1.22.84,2.57.84,4.03,0,2.51-.75,4.64-2.26,6.38-1.5,1.74-4.22,2.61-8.15,2.61h-7.13v12.01h-3.68ZM803.77,27.84h7.19c2.38,0,4.06-.47,5.06-1.41,1-.94,1.5-2.26,1.5-3.97,0-1.24-.29-2.29-.88-3.17-.59-.88-1.36-1.46-2.32-1.74-.62-.17-1.76-.26-3.43-.26h-7.11v10.56Z"/>
    <path class="cls-3" d="M826.76,43.35V13.79h3.68v12.14h14.45v-12.14h3.68v29.55h-3.68v-13.93h-14.45v13.93h-3.68Z"/>
    <path class="cls-3" d="M855.98,43.35V13.79h3.68v29.55h-3.68Z"/>
    <path class="cls-3" d="M865.55,33.85l3.47-.32c.16,1.48.55,2.69,1.15,3.64s1.53,1.71,2.8,2.3c1.26.58,2.69.88,4.27.88,1.4,0,2.64-.22,3.72-.66s1.87-1.05,2.4-1.82c.52-.77.79-1.62.79-2.53s-.25-1.74-.76-2.43c-.51-.69-1.34-1.27-2.5-1.74-.75-.31-2.4-.79-4.95-1.44-2.55-.65-4.34-1.27-5.37-1.84-1.33-.74-2.32-1.66-2.97-2.75-.65-1.1-.98-2.32-.98-3.68,0-1.49.4-2.89,1.19-4.18.8-1.3,1.96-2.28,3.49-2.95,1.53-.67,3.23-1.01,5.1-1.01,2.06,0,3.88.35,5.45,1.06,1.57.71,2.78,1.74,3.63,3.11.85,1.37,1.3,2.92,1.36,4.66l-3.53.28c-.19-1.87-.83-3.28-1.92-4.23-1.09-.95-2.71-1.43-4.84-1.43s-3.85.43-4.86,1.3-1.53,1.91-1.53,3.13c0,1.06.36,1.94,1.08,2.62.71.69,2.56,1.39,5.55,2.11,2.99.72,5.04,1.35,6.15,1.88,1.62.79,2.81,1.8,3.58,3.01.77,1.22,1.16,2.62,1.16,4.2s-.42,3.05-1.27,4.45c-.85,1.39-2.06,2.47-3.65,3.25s-3.37,1.16-5.36,1.16c-2.52,0-4.62-.39-6.32-1.17-1.7-.78-3.03-1.95-4-3.52-.97-1.57-1.48-3.34-1.53-5.31Z"/>
    <path class="cls-3" d="M893.48,43.35V13.79h3.68v12.14h14.45v-12.14h3.68v29.55h-3.68v-13.93h-14.45v13.93h-3.68Z"/>
    <path class="cls-3" d="M922.69,43.35V13.79h3.68v29.55h-3.68Z"/>
    <path class="cls-3" d="M933.48,43.35V13.79h3.77l14.6,23.2V13.79h3.53v29.55h-3.77l-14.6-23.22v23.22h-3.53Z"/>
    <path class="cls-3" d="M975.23,31.75v-3.47l11.77-.02v10.97c-1.81,1.53-3.67,2.68-5.59,3.46-1.92.77-3.89,1.16-5.92,1.16-2.73,0-5.21-.62-7.44-1.86-2.23-1.24-3.92-3.04-5.05-5.39-1.14-2.35-1.71-4.98-1.71-7.88s.57-5.56,1.7-8.05,2.76-4.34,4.88-5.55c2.12-1.21,4.57-1.81,7.34-1.81,2.01,0,3.83.35,5.45,1.04,1.62.69,2.9,1.66,3.82,2.89.92,1.24,1.62,2.85,2.1,4.84l-3.32.97c-.42-1.51-.94-2.69-1.55-3.55-.62-.86-1.5-1.55-2.65-2.07-1.15-.52-2.43-.78-3.83-.78-1.68,0-3.14.27-4.36.82s-2.22,1.26-2.97,2.15-1.34,1.86-1.75,2.92c-.71,1.83-1.06,3.81-1.06,5.95,0,2.63.43,4.84,1.28,6.61.85,1.77,2.1,3.09,3.73,3.95s3.36,1.29,5.19,1.29c1.59,0,3.15-.33,4.66-.98s2.67-1.35,3.45-2.09v-5.5h-8.17Z"/>
  </g>
  <g>
    <g>
      <polygon class="cls-2" points="394.84 115.7 394.84 137.16 451.03 137.16 451.03 161.97 477.45 161.97 477.45 115.7 394.84 115.7"/>
      <g class="cls-4">
        <polygon class="cls-3" points="436.15 74.39 500.52 138.77 436.15 203.27 371.78 138.77 436.15 74.39"/>
      </g>
    </g>
    <g>
      <path class="cls-2" d="M394.84,183.56c0,7.91,6.84,13.68,14.75,17.97l26.29,13.28.27-.13.27.13,26.29-13.28c7.91-4.29,14.75-10.06,14.75-17.97v-16.63l-41.17,21.46h-.27l-9.52-4.83c-2.82-1.48-5.36-3.62-5.36-6.44v-21.19l-26.29-13.81v41.44Z"/>
      <g class="cls-1">
        <polygon class="cls-3" points="436.15 100.81 513.8 178.46 436.15 256.11 358.5 178.46 436.15 100.81"/>
      </g>
    </g>
    <g>
      <polyline class="cls-3" points="514.74 129.38 499.85 129.38 499.85 126.43 518.9 126.43 518.9 129.38 502.67 149.5 519.3 149.5 519.3 152.45 498.64 152.45 498.64 149.5"/>
      <path class="cls-3" d="M521.98,139.17c.4-1.21.94-2.28,1.74-3.08.8-.94,1.74-1.61,2.82-2.15,1.07-.54,2.41-.8,3.89-.8s2.82.27,3.89.8c1.07.54,2.01,1.21,2.82,2.15.8.94,1.34,1.88,1.74,3.08.4,1.21.54,2.55.54,3.89s-.13,2.68-.54,3.89c-.4,1.21-.94,2.28-1.74,3.08-.8.94-1.74,1.61-2.82,2.01-1.07.54-2.41.8-3.89.8s-2.82-.27-3.89-.8c-1.07-.54-2.15-1.21-2.82-2.01-.8-.94-1.34-1.88-1.74-3.08-.4-1.21-.54-2.41-.54-3.89-.13-1.48.13-2.68.54-3.89M525.06,146.01c.27.94.67,1.61,1.21,2.28.54.54,1.21,1.07,1.88,1.34.67.27,1.48.54,2.28.54s1.61-.13,2.28-.54c.67-.27,1.34-.8,1.88-1.34.54-.54.94-1.34,1.21-2.28s.4-1.88.4-3.08c0-1.07-.13-2.15-.4-3.08s-.67-1.61-1.21-2.28-1.21-1.07-1.88-1.34c-.67-.27-1.48-.54-2.28-.54s-1.61.13-2.28.54c-.67.27-1.34.8-1.88,1.34-.54.67-.94,1.34-1.21,2.28-.27.94-.4,1.88-.4,3.08,0,1.21.13,2.28.4,3.08"/>
      <path class="cls-3" d="M546.12,133.54v2.95h.13c1.34-2.28,3.35-3.35,6.17-3.35,1.21,0,2.28.13,3.08.54.8.4,1.48.8,2.01,1.48.54.67.8,1.34,1.07,2.15.27.8.27,1.74.27,2.82v12.34h-3.08v-12.74c0-1.21-.4-2.15-1.07-2.82s-1.61-1.07-2.82-1.07c-.94,0-1.74.13-2.41.4s-1.21.67-1.74,1.21c-.4.54-.8,1.21-1.07,1.88-.27.67-.4,1.48-.4,2.41v10.59h-3.08v-18.78"/>
      <path class="cls-3" d="M576.83,151.24c-1.34,1.07-3.22,1.61-5.36,1.61-1.48,0-2.82-.27-3.89-.67-1.07-.54-2.01-1.21-2.82-2.01-.8-.94-1.34-1.88-1.74-3.08-.4-1.21-.54-2.55-.67-4.02,0-1.48.27-2.68.67-3.89.4-1.21,1.07-2.28,1.88-3.08.8-.8,1.74-1.61,2.82-2.01,1.07-.54,2.28-.67,3.49-.67,1.61,0,3.08.4,4.16,1.07,1.07.67,2.01,1.61,2.68,2.68.67,1.07,1.07,2.28,1.34,3.49.27,1.21.4,2.41.27,3.62h-14.08c0,.8.13,1.61.27,2.28.27.8.54,1.34,1.07,2.01.54.54,1.07,1.07,1.88,1.34.8.4,1.61.54,2.68.54,1.34,0,2.41-.27,3.22-.94.8-.67,1.34-1.48,1.61-2.82h3.08c-.27,1.88-1.21,3.49-2.55,4.56M576.03,139.17c-.27-.67-.67-1.21-1.07-1.74-.54-.54-1.07-.8-1.61-1.07-.67-.27-1.34-.4-2.15-.4s-1.48.13-2.15.4c-.67.27-1.21.67-1.61,1.21-.4.54-.8,1.07-1.07,1.74-.27.67-.4,1.34-.54,2.01h10.86c-.27-.8-.4-1.48-.67-2.15"/>
      <path class="cls-3" d="M585.82,133.54v4.02h.13c.8-1.48,1.61-2.68,2.82-3.35,1.07-.67,2.41-1.07,4.16-1.07v3.22c-1.21,0-2.28.13-3.22.54-.94.4-1.61.8-2.15,1.48-.54.67-.94,1.48-1.21,2.41s-.4,2.01-.4,3.22v8.31h-3.08v-18.78"/>
      <path class="cls-3" d="M519.43,158.88l12.87,34.47h-7.91l-2.55-7.64h-12.87l-2.68,7.64h-7.64l13.01-34.47M519.83,180.07l-4.29-12.61h-.13l-4.43,12.61h8.85Z"/>
      <path class="cls-3" d="M541.02,168.4v3.49h.13c.8-1.48,2.01-2.55,3.35-3.22,1.34-.67,2.82-.94,4.29-.94,1.88,0,3.35.27,4.56.8s2.15,1.21,2.82,2.01c.67.94,1.21,2.01,1.48,3.22.27,1.21.4,2.68.4,4.16v15.42h-6.84v-14.08c0-2.01-.27-3.62-.94-4.56-.67-1.07-1.74-1.48-3.49-1.48-1.88,0-3.22.54-4.02,1.61-.8,1.07-1.21,2.95-1.21,5.5v13.01h-6.84v-24.94"/>
      <path class="cls-3" d="M576.83,168.4v4.56h-4.96v12.34c0,1.21.13,1.88.54,2.28.4.4,1.21.54,2.28.54h1.07c.4,0,.67-.13,1.07-.13v5.36c-.54.13-1.21.13-1.88.13h-2.01c-1.07,0-2.01-.13-2.95-.27-.94-.13-1.74-.4-2.55-.8-.67-.4-1.34-1.07-1.74-1.74-.4-.8-.67-1.74-.67-3.08v-14.75h-4.16v-4.56h4.16v-7.51h6.84v7.51"/>
      <path class="cls-3" d="M580.32,158.88h6.84v5.63h-6.84v-5.63ZM587.16,193.35h-6.84v-24.94h6.84v24.94Z"/>
      <polyline class="cls-3" points="600.84 193.35 589.57 158.88 597.35 158.88 605.13 183.16 605.13 183.16 612.91 158.88 620.69 158.88 609.29 193.35"/>
      <path class="cls-3" d="M622.29,158.88h6.84v5.63h-6.84v-5.63ZM629.13,193.35h-6.84v-24.94h6.84v24.94Z"/>
      <path class="cls-3" d="M641.07,168.4v4.69h.13c.27-.8.8-1.48,1.34-2.15.54-.67,1.21-1.21,1.88-1.74.67-.4,1.48-.8,2.28-1.07.8-.27,1.61-.4,2.55-.4.4,0,.94.13,1.48.27v6.3c-.27,0-.67-.13-1.21-.13-.4,0-.94-.13-1.34-.13-1.21,0-2.28.27-3.22.67-.8.4-1.61.94-2.15,1.74-.54.67-.94,1.61-1.07,2.55-.27.94-.4,2.01-.4,3.08v11.27h-6.84v-24.94"/>
      <path class="cls-3" d="M670.17,193.35v-3.49h-.13c-.8,1.48-2.01,2.55-3.35,3.08-1.34.67-2.82.94-4.29.94-1.88,0-3.35-.27-4.56-.67-1.21-.54-2.15-1.21-2.82-2.01-.67-.94-1.21-2.01-1.48-3.22-.27-1.21-.4-2.68-.4-4.16v-15.42h6.84v14.08c0,2.01.27,3.62.94,4.56.67,1.07,1.74,1.48,3.49,1.48,1.88,0,3.22-.54,4.02-1.61.8-1.07,1.21-2.95,1.21-5.5v-13.01h6.84v24.94"/>
      <path class="cls-3" d="M687.61,187.18c.27.54.67.94,1.21,1.34.54.4,1.07.54,1.61.8.67.13,1.34.27,2.01.27.54,0,.94,0,1.48-.13.54-.13,1.07-.27,1.48-.54.4-.27.8-.54,1.07-.94.27-.4.4-.94.4-1.48,0-1.07-.67-1.74-2.01-2.28-1.34-.54-3.22-1.07-5.77-1.61-.94-.27-2.01-.54-2.95-.8-.94-.27-1.74-.67-2.55-1.21-.67-.54-1.34-1.07-1.74-1.88-.4-.8-.67-1.74-.67-2.82,0-1.61.27-2.95.94-3.89.67-1.07,1.48-1.88,2.55-2.41,1.07-.54,2.15-1.07,3.49-1.21,1.34-.27,2.55-.4,3.89-.4s2.68.13,3.89.4c1.21.27,2.41.67,3.35,1.34.94.67,1.88,1.48,2.55,2.41.67,1.07,1.07,2.28,1.21,3.89h-6.57c-.13-1.34-.54-2.15-1.48-2.68-.94-.4-2.01-.67-3.22-.67-.4,0-.8,0-1.21.13-.4,0-.8.13-1.21.27-.4.13-.67.4-.94.67s-.4.67-.4,1.21c0,.67.27,1.07.67,1.48.4.4,1.07.67,1.74.94s1.61.4,2.55.67c.94.13,1.88.4,2.82.67.94.27,2.01.54,2.95.8.94.27,1.74.8,2.55,1.34.8.54,1.34,1.21,1.74,2.01s.67,1.74.67,2.95c0,1.61-.27,2.95-.94,4.16-.67,1.07-1.48,2.01-2.55,2.68-1.07.67-2.28,1.21-3.62,1.48-1.34.27-2.82.4-4.16.4-1.48,0-2.82-.13-4.29-.4-1.34-.27-2.55-.8-3.76-1.48-1.07-.67-2.01-1.61-2.68-2.68-.67-1.07-1.07-2.55-1.07-4.16h6.57c0,.13.13.8.4,1.34"/>
    </g>
  </g>
  <path class="cls-3" d="M59.46,33.36l-3.27-3.27c-.3-.3-.7-.46-1.12-.46h-7.54c-.29-1.25-.7-2.47-1.22-3.65h3.17c.42,0,.83-.17,1.12-.46l5.58-5.58c.62-.62.62-1.64,0-2.26-.62-.62-1.64-.62-2.26,0l-5.12,5.12h-4.33c-1.04-1.49-2.26-2.8-3.65-3.89.08-.53.12-1.02.12-1.48,0-4.22-2.62-8.03-6.55-9.58l2.16-4.24h4.13c.88,0,1.6-.72,1.6-1.6s-.7-1.6-1.6-1.6h-5.11c-.59,0-1.13.33-1.42.87l-2.99,5.85c-.31-.02-.61-.03-.92,0l-3.02-5.93c-.26-.53-.82-.88-1.42-.88h-5.11c-.88,0-1.6.72-1.6,1.6s.72,1.6,1.6,1.6h4.13l2.18,4.27c-4,1.52-6.67,5.36-6.67,9.64,0,.5.05,1.02.16,1.55-1.35,1.07-2.54,2.35-3.56,3.8h-4.33l-5.12-5.12c-.62-.62-1.64-.62-2.26,0s-.62,1.64,0,2.26l5.58,5.58c.3.3.7.46,1.12.46h3.17c-.52,1.15-.92,2.38-1.22,3.65h-7.54c-.42,0-.83.17-1.12.46l-3.27,3.27c-.62.62-.62,1.64,0,2.25.56.59,1.65.61,2.25,0l2.81-2.81h6.39c-.04.47-.06.96-.06,1.45,0,.94.05,1.82.17,2.67l-5.6,5.6c-.3.3-.46.7-.46,1.12v4.65c0,.88.72,1.6,1.6,1.6s1.6-.72,1.6-1.6v-3.99l3.71-3.71c1.63,5.04,5.15,9.1,9.71,11.17,2.1.96,4.33,1.44,6.64,1.44.57,0,1.15-.03,1.71-.09,1.7-.18,3.36-.64,4.93-1.36,4.55-2.05,8.07-6.1,9.71-11.17l3.71,3.71v3.99c0,.88.72,1.6,1.6,1.6s1.6-.72,1.6-1.6v-4.65c0-.42-.17-.83-.46-1.12l-5.6-5.6c.11-.95.17-1.83.17-2.66,0-.49-.03-.99-.06-1.45h6.39l2.8,2.8c.56.59,1.65.61,2.25,0,.3-.3.47-.7.47-1.13s-.17-.83-.47-1.13ZM32.12,50s-.09,0-.12.01c-.85.08-1.71.08-2.54,0-.05,0-.09-.01-.13-.02-.03,0-.07,0-.11-.01-.36-.04-.71-.1-1.04-.16-.1-.03-.18-.05-.26-.06-.31-.07-.64-.16-1.02-.27,1.27-3.01,2.03-6.04,2.76-8.97l.05-.18c.33-1.36.65-2.66,1.02-3.94.37,1.3.7,2.65,1.02,3.95.65,2.67,1.46,5.97,2.8,9.14-.35.11-.7.2-1.01.27h-.02c-.07.03-.14.04-.22.05-.36.07-.7.12-1.07.17-.03,0-.06,0-.09.01ZM30.72,29.95c-.65,0-1.22.38-1.47.97-1.21,2.81-1.94,5.78-2.66,8.66-.63,2.52-1.42,5.64-2.65,8.56-4.57-2.76-7.4-8.03-7.4-13.85,0-8.7,6.35-15.78,14.16-15.78s14.16,7.08,14.16,15.78c0,5.81-2.83,11.09-7.4,13.85-1.19-2.83-1.96-5.78-2.65-8.56-.71-2.88-1.45-5.86-2.65-8.66-.25-.59-.82-.97-1.47-.97ZM23.56,17.04c.21-3.74,3.31-6.71,7.1-6.71.28,0,.58.02.86.05.24.09.5.14.65.1,3.1.67,5.39,3.36,5.58,6.5-2.24-1.09-4.61-1.65-7.04-1.66-2.46,0-4.87.58-7.16,1.71Z"/>
  <g>
    <path class="cls-3" d="M342.09,5.96h-26.95l-13.48,23.34,13.48,23.34h26.95l13.48-23.34-13.48-23.34ZM316.92,49.57l-11.7-20.27,11.7-20.27h23.4l11.7,20.27-11.7,20.27h-23.4Z"/>
    <rect class="cls-3" x="326.42" y="15.49" width="3.74" height="21.33"/>
    <rect class="cls-3" x="326.42" y="40.36" width="3.74" height="3.49"/>
  </g>
  <path class="cls-3" d="M683.71,38.1c-2-2.73-4.36-4.87-6.99-6.36l-.39-.22.17-.41c.18-.42.33-.89.42-1.33l.06-.27.26-.09c1.75-.63,3.22-1.38,4.38-2.25,1.08-.82,2.38-2.18,2.38-4.05,0-1.66-1.03-3.17-3.06-4.48-1.47-.94-3.33-1.74-5.54-2.39l-.26-.08-.08-.26c-.72-2.51-1.58-5.4-2.68-7.93-.59-1.35-1.35-2.9-2.48-4.11-1.14-1.21-2.62-1.9-4.08-1.9-.9,0-1.62.2-2.39.41-.19.05-.39.11-.58.16-.91.23-1.98.47-3.09.47-1.01,0-1.9-.24-2.85-.49-.98-.26-2-.54-3.21-.54-2.01,0-3.46,1.23-4.15,1.97-1.18,1.27-1.98,2.9-2.55,4.18-1.07,2.45-1.85,5.19-2.55,7.79l-.07.27-.27.08c-2.21.64-4.07,1.45-5.54,2.39-2.03,1.31-3.06,2.81-3.06,4.48,0,1.87,1.29,3.23,2.38,4.05,1.15.87,2.63,1.62,4.38,2.25l.26.09.06.27c.1.45.24.91.42,1.33l.17.41-.39.22c-2.63,1.49-4.99,3.63-6.99,6.37l-.93,1.32,1.33.94,6.76,4.63.36.25-.19.39-2.41,4.82h38.07l-2.41-4.82-.19-.39.36-.25,6.76-4.64,1.33-.93-.94-1.33ZM646.99,18.43l.65-1.97c.97-2.95,1.74-5.27,2.24-7,.16-.53.66-1.93,1.98-3.36.66-.71,1.19-1,1.85-1,.18,0,.39.06.91.2,1.03.29,2.95.83,5.14.83,1.47,0,2.77-.29,3.87-.57,1.88-.47,2.07-.47,2.18-.47.65,0,1.14.25,1.78.93.65.69,1.37,1.87,1.96,3.24.89,2.03,1.61,4.65,2.32,7.19.2.72.4,1.44.6,2.15l.13.46-.45.15-.2.07s-1.49.63-2.98.86c-2.6.39-6.08.39-8.87.39h-.35c-1.07,0-1.97,0-2.75.01-.6,0-1.13,0-1.61,0-2.03,0-3.16-.07-4.91-.49-1.09-.26-2.18-.6-3.22-1.02l-.44-.17.15-.45ZM639.82,24.68c-.96-.72-1.17-1.25-1.17-1.56s.21-.95,1.58-1.84c.79-.51,1.95-1.05,3.26-1.53l.42-.15.2.41c.39.81,1.09,1.52,1.91,1.97,1.25.66,2.7.95,4.09,1.17,3.02.47,6.57.51,9.65.51h.58c2.57,0,6.1,0,9.07-.45,1.38-.21,2.84-.49,4.09-1.17.81-.44,1.52-1.2,1.91-2.03l.19-.41.43.15c1.35.48,2.43.97,3.2,1.47,1.53.98,1.65,1.7,1.65,1.9,0,.31-.2.84-1.17,1.56-1,.75-2.61,1.51-4.4,2.07-4.03,1.28-9.7,2.02-15.55,2.02s-11.52-.74-15.55-2.02c-1.79-.57-3.4-1.32-4.4-2.07ZM653.32,47.33h-7.51l.36-.72.58-1.16.58-1.21-1.12-.73-6.26-4.32-.47-.32.38-.42c2.16-2.39,4.15-3.75,5.14-4.34l.26-.16.26.15s.05.03.08.04c.06.03.12.06.18.09l.18.11.05.2c.92,3.75,2.49,6.95,4.53,9.26.86.98,1.88,1.86,3.05,2.62l1.41.92h-1.68ZM659.76,45.27c-2.54-.03-4.85-1.22-6.87-3.52-2.01-2.28-3.49-5.43-4.17-8.86l-.2-1.31-.1-.68.68.11c.28.05.57.11.85.17.39.08.79.17,1.19.22l.38.05.06.38c.2,1.35,1.23,2.98,3.47,3.12.09,0,.17,0,.26,0,1.4,0,2.94-.68,3.08-2.57l.03-.46h2.73l.03.46c.14,1.9,1.68,2.57,3.08,2.57.09,0,.17,0,.26,0,2.24-.14,3.27-1.76,3.47-3.12l.06-.38.38-.05c.4-.05.8-.13,1.19-.22.29-.06.57-.12.85-.17l.68-.11-.1.68-.19,1.29c-.64,3.41-2.16,6.66-4.18,8.95-1.99,2.26-4.34,3.46-6.78,3.46h-.1ZM679.57,39.19l-6.25,4.32-1.13.73.58,1.22.58,1.15.36.72h-8.95l1.36-.91c1-.67,1.97-1.53,2.87-2.56,2.09-2.37,3.65-5.61,4.53-9.38l.05-.22.19-.11s.05-.03.07-.05c.03-.02.07-.05.1-.07l.26-.16.26.15c.78.46,2.84,1.8,5.21,4.41l.38.42-.47.32Z"/>
</svg>