<?xml version="1.0" encoding="UTF-8"?>
<svg id="Vrstva_1" data-name="Vrstva 1" xmlns="http://www.w3.org/2000/svg" viewBox="0 0 500 149.25">
  <defs>
    <style>
      .cls-1 {
        fill: #c99900;
      }

      .cls-1, .cls-2, .cls-3 {
        stroke-width: 0px;
      }

      .cls-2 {
        fill: #fbbf00;
      }

      .cls-3 {
        fill: #fff;
      }
    </style>
  </defs>
  <g>
    <circle class="cls-2" cx="73.87" cy="74.62" r="73.87"/>
    <path class="cls-1" d="M133.87,54.72L30.83,27.54l-14.3,54.24v39.41c13.54,16.66,34.2,27.3,57.34,27.3,24.72,0,46.6-12.14,60.01-30.79v-62.99Z"/>
    <path class="cls-3" d="M73.87,75.39c-14.34-15.95-28.69-31.9-43.03-47.85l103.04,27.18c-20,6.89-40.01,13.79-60.01,20.68Z"/>
    <path class="cls-3" d="M72.33,80.78c4.45-1.39,8.9-2.78,13.35-4.17,8.89,11.65,17.78,23.3,26.67,34.95-31.03-8.21-62.07-16.41-93.1-24.62,13.99-5.59,27.97-11.19,41.96-16.78l11.14,10.62Z"/>
    <path class="cls-3" d="M16.53,81.78c13.73-5.21,27.45-10.41,41.18-15.62-9.36-11.34-18.72-22.69-28.08-34.03l-13.09,49.65Z"/>
    <path class="cls-3" d="M132.34,59.83c-13.73,5.21-27.45,10.41-41.18,15.62,9.36,11.34,18.72,22.69,28.08,34.03l13.09-49.65Z"/>
  </g>
  <g>
    <path class="cls-3" d="M343.61,56.31h-16.28v-2.15l12.57-19.05h-12.18v-2.48h15.53v2.15l-12.57,19.03h12.93v2.49Z"/>
    <path class="cls-3" d="M367.35,44.44c0,3.79-.96,6.77-2.88,8.94-1.92,2.17-4.58,3.26-7.99,3.26s-6.18-1.07-8.07-3.2c-1.9-2.13-2.84-5.14-2.84-9.03s.95-6.84,2.85-8.97c1.9-2.12,4.6-3.18,8.1-3.18s6.06,1.08,7.97,3.24c1.91,2.16,2.87,5.14,2.87,8.94ZM348.48,44.44c0,3.21.68,5.64,2.05,7.3,1.37,1.66,3.35,2.49,5.95,2.49s4.61-.83,5.94-2.48,2.01-4.09,2.01-7.31-.67-5.6-2-7.25c-1.33-1.65-3.31-2.47-5.92-2.47s-4.62.83-5.99,2.49c-1.37,1.66-2.05,4.07-2.05,7.23Z"/>
    <path class="cls-3" d="M389.74,56.31h-3.14l-12.94-19.87h-.13c.17,2.33.26,4.47.26,6.41v13.46h-2.54v-23.68h3.11l12.91,19.79h.13c-.02-.29-.07-1.23-.15-2.81-.08-1.58-.1-2.71-.08-3.39v-13.59h2.58v23.68Z"/>
    <path class="cls-3" d="M408.06,56.31h-13.2v-23.68h13.2v2.45h-10.45v7.63h9.82v2.43h-9.82v8.71h10.45v2.46Z"/>
    <path class="cls-3" d="M414.66,46.46v9.85h-2.75v-23.68h6.5c2.9,0,5.05.56,6.44,1.67,1.39,1.11,2.08,2.79,2.08,5.02,0,3.13-1.59,5.25-4.76,6.35l6.43,10.64h-3.26l-5.73-9.85h-4.94ZM414.66,44.1h3.77c1.94,0,3.37-.39,4.28-1.16s1.36-1.93,1.36-3.47-.46-2.69-1.38-3.39c-.92-.69-2.41-1.04-4.45-1.04h-3.58v9.05Z"/>
  </g>
  <g>
    <path class="cls-3" d="M222.2,124.47h-14.3l-8.02-41.09c-.3-1.46-.8-4.48-1.52-9.07-.72-4.58-1.13-7.66-1.24-9.23-.16,1.93-.57,5.02-1.21,9.28-.65,4.26-1.15,7.3-1.5,9.12l-7.98,40.98h-14.26l-15.11-78.22h12.35l7.57,42.69c1.32,7.88,2.28,14.71,2.88,20.49.16-2.03.53-5.18,1.11-9.44.58-4.26,1.13-7.57,1.64-9.92l8.63-43.82h11.87l8.63,43.82c.38,1.96.85,4.96,1.42,8.99.57,4.03,1,7.49,1.3,10.38.27-2.78.7-6.25,1.3-10.41.59-4.15,1.13-7.52,1.62-10.09l7.53-42.69h12.35l-15.06,78.22Z"/>
    <path class="cls-3" d="M261.83,125.54c-7.29,0-12.99-2.66-17.09-7.97-4.1-5.31-6.16-12.84-6.16-22.58s1.9-17.77,5.69-23.25c3.79-5.47,9.04-8.21,15.73-8.21s11.38,2.41,14.94,7.22,5.35,11.47,5.35,19.96v7.92h-29.2c.14,4.64,1.17,8.26,3.12,10.86,1.94,2.6,4.67,3.91,8.18,3.91,2.73,0,5.31-.37,7.74-1.12,2.43-.75,4.97-1.94,7.61-3.58v12.63c-2.16,1.43-4.47,2.49-6.93,3.18-2.46.7-5.45,1.04-8.99,1.04ZM260.09,75.15c-2.62,0-4.67,1.1-6.16,3.29s-2.34,5.31-2.55,9.34h17.33c-.05-4.03-.85-7.14-2.39-9.34s-3.62-3.29-6.24-3.29Z"/>
    <path class="cls-3" d="M313.13,63.54c5.35,0,9.53,2.76,12.55,8.27,3.02,5.51,4.54,13.06,4.54,22.66s-1.56,17.53-4.68,22.95c-3.12,5.42-7.36,8.13-12.74,8.13s-9.49-2.55-12.51-7.65h-.85l-2.07,6.58h-9.44V41.23h12.35v19.37c0,2.46-.16,6.4-.49,11.82h.49c2.89-5.92,7.17-8.88,12.84-8.88ZM309.16,76.59c-3.05,0-5.28,1.24-6.68,3.72-1.4,2.48-2.13,6.57-2.19,12.28v1.77c0,6.42.72,11.02,2.17,13.8,1.44,2.78,3.73,4.17,6.86,4.17,2.54,0,4.56-1.54,6.05-4.63,1.5-3.08,2.25-7.57,2.25-13.46s-.76-10.3-2.27-13.24c-1.51-2.94-3.58-4.41-6.2-4.41Z"/>
    <path class="cls-3" d="M378.56,124.47h-12.35v-34.94c0-4.31-.55-7.55-1.64-9.71-1.09-2.16-2.81-3.24-5.16-3.24-3.16,0-5.45,1.53-6.88,4.6-1.43,3.07-2.15,8.11-2.15,15.14v28.14h-12.35v-59.81h9.44l1.66,7.65h.69c1.21-2.75,2.97-4.9,5.26-6.45,2.29-1.55,4.93-2.33,7.9-2.33,6.78,0,11.37,2.93,13.77,8.77h1.09c1.22-2.78,3-4.94,5.37-6.47,2.36-1.53,5.03-2.3,8-2.3,5.13,0,9.01,1.74,11.64,5.22,2.63,3.48,3.95,9.05,3.95,16.72v39h-12.39v-34.94c0-4.31-.55-7.55-1.64-9.71-1.09-2.16-2.81-3.24-5.16-3.24-3.02,0-5.28,1.43-6.78,4.28-1.5,2.85-2.25,7.38-2.25,13.59v30.01Z"/>
    <path class="cls-3" d="M445.81,124.47l-2.39-8.13h-.32c-2.08,3.46-4.22,5.86-6.42,7.2s-5.07,2.01-8.61,2.01c-4.35,0-7.77-1.64-10.27-4.92-2.5-3.28-3.75-7.95-3.75-14.02s1.68-11.03,5.04-14.04c3.36-3.01,8.43-4.68,15.21-5l7.86-.32v-2.62c0-6.06-2.35-9.09-7.05-9.09-3.62,0-7.87,1.44-12.76,4.33l-4.09-11.02c5.21-3.6,10.99-5.4,17.33-5.4s10.73,1.75,13.97,5.24c3.24,3.5,4.86,8.81,4.86,15.94v39.86h-8.63ZM442.16,96.76l-4.78.21c-3.59.14-6.26,1-8.02,2.57-1.76,1.57-2.63,3.96-2.63,7.17,0,4.6,2,6.9,5.99,6.9,2.86,0,5.15-1.09,6.86-3.26,1.71-2.18,2.57-5.06,2.57-8.67v-4.92Z"/>
    <path class="cls-3" d="M464.22,49.2c0-5.31,2.24-7.97,6.72-7.97s6.72,2.66,6.72,7.97c0,2.53-.56,4.5-1.68,5.91-1.12,1.41-2.8,2.11-5.04,2.11-4.48,0-6.72-2.68-6.72-8.03ZM477.09,124.47h-12.35v-59.81h12.35v59.81Z"/>
    <path class="cls-3" d="M500,124.47h-12.35V41.23h12.35v83.25Z"/>
  </g>
</svg>